:SAMPLES-PER-SECOND 30
:FRAME-RANGE 1-668
:FULLY-SPECIFIED
:DEGREES
42
root  63.5759 38.5308 -35.8656 -3.62176 -38.3155 8.1745
RightUpLeg  -26.3977 -5.77771 -8.13518
RightLeg  52.0202 -6.04801 -8.60173
RightFoot  -5.89892 -0.626539 12.2897
RightToes  -1.33073e-015 0 -3.6325e-017
Spine  6.40116 -2.0996 -6.44502
Spine1  1.24303 -2.50135 -1.64839
HEad  1.52568 4.35072 -2.11157
LeftShoulder1  1.48731 -0.335334 -32.6897
LeftArm  19.3394 -5.69228 -31.0378
LeftForeArm  -4.82186 -19.2779 -8.14696
LeftHand  0.296752 -2.92267 -3.93003
RightShoulder  5.49102 5.99668 50.643
RightArm  47.6659 -6.02249 15.4942
RightForeArm  -6.86624 18.445 9.51898
RightHand  0.125476 4.88043 1.11679
LeftUpLeg  -3.53717 7.19791 -8.56387
LeftLeg  19.4849 10.6924 0.23152
LeftFoot  -18.7226 -0.0203753 -2.05618
LeftToes  -2.73175e-012 1.00346e-010 -4.28452e-011
43
root  63.1203 38.5421 -34.6285 -2.81707 -38.2047 7.07159
RightUpLeg  -28.1717 -9.14586 -4.13467
RightLeg  42.9646 -7.46588 -7.66533
RightFoot  -6.55957 -0.571141 12.5586
RightToes  -1.33073e-015 0 -3.6325e-017
Spine  6.15384 -2.8676 -6.79143
Spine1  1.02826 -3.4741 0.366075
HEad  1.61241 5.53198 -1.71784
LeftShoulder1  1.56319 -0.544714 -32.5637
LeftArm  20.1864 -8.5496 -32.4382
LeftForeArm  -4.85785 -21.1561 -6.44032
LeftHand  0.268688 -3.00856 -3.49467
RightShoulder  5.0547 5.329 50.1544
RightArm  51.9935 -7.37809 15.5631
RightForeArm  -10.7527 21.247 6.94437
RightHand  0.129332 4.57538 1.21543
LeftUpLeg  -0.425065 6.43303 -8.19974
LeftLeg  17.2205 11.4112 -0.0607779
LeftFoot  -19.5371 -0.0143358 -1.8354
LeftToes  -2.73175e-012 1.00346e-010 -4.28452e-011
44
root  62.6188 38.4731 -33.3843 -2.11905 -38.4273 6.35228
RightUpLeg  -29.0279 -13.0945 0.367128
RightLeg  31.4586 -8.09167 -5.53648
RightFoot  -6.55458 -0.593143 13.0665
RightToes  -1.33073e-015 0 -3.6325e-017
Spine  5.68177 -3.47669 -7.39195
Spine1  1.03259 -4.30996 2.3308
HEad  1.57322 6.61165 -1.19378
LeftShoulder1  1.61345 -0.708689 -32.2567
LeftArm  19.0368 -11.6327 -33.694
LeftForeArm  -3.44975 -22.676 -5.39558
LeftHand  0.228408 -3.0913 -2.90209
RightShoulder  4.52566 4.4431 49.9224
RightArm  52.2518 -8.15822 15.4087
RightForeArm  -10.6086 22.9082 5.75336
RightHand  0.140816 4.65418 1.33344
LeftUpLeg  2.51844 6.18504 -8.11327
LeftLeg  15.0267 11.9584 -0.347134
LeftFoot  -20.3271 -0.0129291 -1.7161
LeftToes  -2.73175e-012 1.00346e-010 -4.28452e-011
45
root  62.0586 38.2648 -32.0818 -1.85901 -38.9009 6.16301
RightUpLeg  -28.8983 -17.5388 5.1191
RightLeg  18.7722 -7.31414 -2.96267
RightFoot  -6.05597 -0.746953 15.202
RightToes  -1.33073e-015 0 -3.6325e-017
Spine  5.25975 -3.97518 -8.15422
Spine1  0.926289 -5.00104 3.88704
HEad  1.71183 7.65794 -0.805217
LeftShoulder1  1.63755 -0.815898 -31.8651
LeftArm  16.003 -14.4557 -34.8001
LeftForeArm  -0.795201 -24.2178 -5.21798
LeftHand  0.193754 -3.0441 -2.44434
RightShoulder  3.93471 3.41115 49.8965
RightArm  49.2691 -8.86365 14.9098
RightForeArm  -7.95903 24.2298 5.58066
RightHand  0.154073 4.60032 1.49796
LeftUpLeg  5.49632 6.18387 -8.49057
LeftLeg  13.3112 12.4066 -0.508274
LeftFoot  -21.4367 -0.0353757 -1.85642
LeftToes  -2.73175e-012 1.00346e-010 -4.28452e-011
46
root  61.43 38.0151 -30.69 -1.79589 -39.8772 5.80107
RightUpLeg  -26.3933 -13.2402 4.61793
RightLeg  8.01763 -15.6326 1.60136
RightFoot  -5.22564 -0.685031 12.1125
RightToes  -1.33073e-015 0 -3.6325e-017
Spine  4.80162 -4.28266 -8.13897
Spine1  1.05359 -5.48218 4.94455
HEad  2.00111 8.64827 -0.85563
LeftShoulder1  1.65187 -0.907129 -31.4052
LeftArm  12.8686 -17.0095 -35.847
LeftForeArm  1.75551 -25.3555 -5.34162
LeftHand  0.179345 -3.1031 -2.22554
RightShoulder  3.27738 2.2684 49.8166
RightArm  45.353 -9.44203 14.239
RightForeArm  -5.39367 25.2294 5.68122
RightHand  0.188311 4.89039 1.82365
LeftUpLeg  8.89744 6.41998 -8.77468
LeftLeg  11.7392 13.1466 -0.584882
LeftFoot  -22.5379 -0.112662 -2.52879
LeftToes  -2.73175e-012 1.00346e-010 -4.28452e-011
47
root  60.6778 37.6061 -29.1143 -1.98225 -40.6072 5.55626
RightUpLeg  -24.3139 -6.87609 2.8177
RightLeg  2.37818 -25.796 6.05034
RightFoot  -5.2932 -0.773387 13.8905
RightToes  -1.33073e-015 0 -3.6325e-017
Spine  3.91318 -4.82635 -7.96272
Spine1  1.31105 -6.19876 5.90438
HEad  2.56764 10.2204 -1.60816
LeftShoulder1  1.65789 -0.955426 -31.1337
LeftArm  10.3189 -18.9802 -36.5742
LeftForeArm  3.57312 -26.442 -5.49361
LeftHand  0.160677 -2.96306 -2.01392
RightShoulder  2.50196 0.954795 49.2938
RightArm  41.0077 -9.83957 13.6234
RightForeArm  -3.18777 26.0091 5.74912
RightHand  0.222128 5.2074 2.11964
LeftUpLeg  11.8628 7.05005 -8.87769
LeftLeg  12.4535 13.0441 -0.529021
LeftFoot  -24.1188 -0.30896 -4.0511
LeftToes  -2.73175e-012 1.00346e-010 -4.28452e-011
48
root  59.9057 37.3573 -27.5323 -1.27148 -41.4502 4.61124
RightUpLeg  -25.0646 -8.76776 6.16798
RightLeg  5.49478 -22.6839 4.8424
RightFoot  -3.27822 -0.44172 5.94395
RightToes  -1.33073e-015 0 -3.6325e-017
Spine  3.01597 -5.32314 -6.87603
Spine1  1.46407 -7.05619 7.22615
HEad  3.41301 12.2902 -2.90913
LeftShoulder1  1.66574 -0.960757 -31.2659
LeftArm  8.24748 -20.3101 -36.836
LeftForeArm  5.3178 -27.3193 -5.60343
LeftHand  0.148761 -3.06794 -1.81699
RightShoulder  1.65165 -0.502519 48.4783
RightArm  36.5985 -10.1018 12.7757
RightForeArm  -1.6602 26.7535 5.84359
RightHand  0.167323 5.10258 1.54192
LeftUpLeg  14.0704 9.12109 -7.62064
LeftLeg  13.8243 11.1029 -0.946531
LeftFoot  -24.3912 -0.580383 -6.34908
LeftToes  -2.73175e-012 1.00346e-010 -4.28452e-011
